<svg width="720" height="1500" viewBox="0 0 720 1500" fill="none" xmlns="http://www.w3.org/2000/svg">
    <defs>
      <linearGradient id="heroGrad" x1="60" y1="80" x2="660" y2="1460" gradientUnits="userSpaceOnUse">
        <stop stop-color="#0B1220"/>
        <stop offset="1" stop-color="#172554"/>
      </linearGradient>
      <linearGradient id="softGlow" x1="140" y1="120" x2="540" y2="420" gradientUnits="userSpaceOnUse">
        <stop stop-color="#14B86A" stop-opacity="0.28"/>
        <stop offset="1" stop-color="#7C3AED" stop-opacity="0.0"/>
      </linearGradient>
      <linearGradient id="g1" x1="100" y1="300" x2="294" y2="442" gradientUnits="userSpaceOnUse">
        <stop stop-color="#FF8A5B"/>
        <stop offset="1" stop-color="#FB5E35"/>
      </linearGradient>
      <linearGradient id="g2" x1="314" y1="300" x2="508" y2="442" gradientUnits="userSpaceOnUse">
        <stop stop-color="#312E81"/>
        <stop offset="1" stop-color="#60A5FA"/>
      </linearGradient>
      <linearGradient id="g3" x1="100" y1="462" x2="294" y2="604" gradientUnits="userSpaceOnUse">
        <stop stop-color="#0F766E"/>
        <stop offset="1" stop-color="#14B8A6"/>
      </linearGradient>
      <linearGradient id="g4" x1="314" y1="462" x2="508" y2="604" gradientUnits="userSpaceOnUse">
        <stop stop-color="#7C2D12"/>
        <stop offset="1" stop-color="#F59E0B"/>
      </linearGradient>
    </defs>

    <rect width="720" height="1500" fill="#EEF2F7"/>
    <rect x="112" y="28" width="496" height="1444" rx="78" fill="#0A0A0A"/>
    <rect x="134" y="50" width="452" height="1400" rx="62" fill="#111827"/>
    <rect x="150" y="74" width="420" height="1352" rx="52" fill="#FFFFFF"/>
    <rect x="286" y="92" width="148" height="34" rx="17" fill="#0A0A0A"/>
    <circle cx="360" cy="109" r="6" fill="#222"/>
    <circle cx="402" cy="109" r="5" fill="#1F2937"/>
    <rect x="150" y="74" width="420" height="228" rx="52" fill="url(#heroGrad)"/>
    <circle cx="474" cy="134" r="144" fill="url(#softGlow)"/>
    <text x="182" y="156" font-size="15" font-family="Inter, Arial, sans-serif" font-weight="700" fill="#FFD5C6">CAPTURR</text>
    <text x="182" y="208" font-size="40" font-family="Inter, Arial, sans-serif" font-weight="900" fill="#FFFFFF">Your creator is on the way</text>
    <text x="182" y="242" font-size="18" font-family="Inter, Arial, sans-serif" fill="#CBD5E1">Track arrival, start code, and upload progress in one view.</text>

    
            <rect x="100" y="250" width="170" height="34" rx="17" fill="#EAF9F0" />
            <text x="118" y="272" font-size="16" font-family="Inter, Arial, sans-serif" font-weight="700" fill="#14B86A">Creator matched • ETA 11 mins</text>
            
                <rect x="100" y="300" width="408" height="56" rx="18" fill="#FFF7F3" stroke="#E2E8F0"/>
                <circle cx="128" cy="328" r="8" fill="#14B86A" />
                <text x="148" y="334" font-size="17" font-family="Inter, Arial, sans-serif" font-weight="700" fill="#111827">Request confirmed</text>
                
                <rect x="100" y="370" width="408" height="56" rx="18" fill="#FFF7F3" stroke="#E2E8F0"/>
                <circle cx="128" cy="398" r="8" fill="#14B86A" />
                <text x="148" y="404" font-size="17" font-family="Inter, Arial, sans-serif" font-weight="700" fill="#111827">Creator en route</text>
                
                <rect x="100" y="440" width="408" height="56" rx="18" fill="#F8FAFC" stroke="#E2E8F0"/>
                <circle cx="128" cy="468" r="8" fill="#CBD5E1" />
                <text x="148" y="474" font-size="17" font-family="Inter, Arial, sans-serif" font-weight="700" fill="#475569">Arrival code verification</text>
                
                <rect x="100" y="510" width="408" height="56" rx="18" fill="#F8FAFC" stroke="#E2E8F0"/>
                <circle cx="128" cy="538" r="8" fill="#CBD5E1" />
                <text x="148" y="544" font-size="17" font-family="Inter, Arial, sans-serif" font-weight="700" fill="#475569">Cloud upload in progress</text>
                

    <rect x="186" y="1344" width="348" height="62" rx="31" fill="#0F172A"/>
    <text x="240" y="1381" font-size="18" font-family="Inter, Arial, sans-serif" font-weight="800" fill="#FFFFFF">Open live session</text>
    <circle cx="212" cy="1375" r="10" fill="#14B86A"/>
    </svg>